<svg width="195" height="89" viewBox="0 0 195 89" fill="none" xmlns="http://www.w3.org/2000/svg">
<g id="logo">
<path id="Vector" d="M16.7575 38.2666V38.2758H17.2575H17.2725C18.2758 38.2758 19.3059 38.2758 20.3431 38.1784V38.4399C19.3059 38.3425 18.2758 38.3425 17.2725 38.3425H17.2575H3.68022H3.66409C2.67754 38.3425 1.59924 38.3425 0.557109 38.4353C0.646177 37.3375 0.646177 36.246 0.646175 35.1778V35.1642V4.48751V4.4755C0.646177 3.39973 0.646178 2.30199 0.555632 1.17038C1.59823 1.26328 2.67708 1.26328 3.6641 1.26327H3.68022H16.5352H16.5502C17.5535 1.26327 18.5836 1.26328 19.6208 1.16588V1.42734C18.5836 1.32994 17.5535 1.32994 16.5502 1.32994H16.5352H1.23821H0.738207V1.82994V19.2649V19.7649H1.23821H14.91H14.925C15.9284 19.7649 16.9585 19.7649 17.9957 19.6676V19.929C16.9587 19.8316 15.9288 19.8316 14.9257 19.8316H14.91H1.23821H0.738207V20.3316V37.7666V38.2666H1.23821H16.7575Z" stroke="white"/>
<path id="Vector_2" d="M44.9524 36.5219C45.7011 35.8766 46.2021 35.4061 46.6251 34.879L46.6601 34.9164C46.2319 35.386 45.7575 35.837 45.1879 36.3288C45.1103 36.3944 45.0318 36.4588 44.9524 36.5219ZM37.963 12.4175C40.2263 12.4175 42.2294 12.9148 43.8998 14.0145C44.8328 14.6621 45.6457 15.3837 46.2849 16.1701L46.1542 16.3015C45.4802 15.4027 44.6909 14.6705 43.5967 13.9471C41.9532 12.8513 39.9767 12.4842 37.92 12.4842C34.5805 12.4842 31.817 13.7551 29.8972 16.0571C27.9856 18.3493 26.9469 21.6184 26.9469 25.5638C26.9469 29.5119 28.0105 32.8156 29.9311 35.1422C31.8591 37.4779 34.6211 38.7907 37.92 38.7907C39.861 38.7907 41.7391 38.3852 43.3249 37.5806C41.717 38.4243 39.8663 38.8665 37.9114 38.8665C34.6413 38.8665 31.8903 37.5251 29.9485 35.2095C28.0011 32.8873 26.8463 29.5575 26.8463 25.5638C26.8463 21.5655 27.9563 18.2773 29.8828 15.9978C31.8022 13.7266 34.5637 12.4175 37.963 12.4175Z" stroke="white"/>
<path id="Vector_3" d="M54.7914 0.499878H55.0906C55.0231 1.39981 54.987 2.33103 54.987 3.83448V35.017C54.987 36.4764 55.0232 37.4388 55.0909 38.3516H54.7911C54.8588 37.4388 54.895 36.4764 54.895 35.017V3.83448C54.895 2.33103 54.8589 1.39981 54.7914 0.499878Z" stroke="white"/>
<path id="Vector_4" d="M67.0338 3.21837C67.0338 3.49475 66.9478 3.68824 66.8396 3.80695C66.7343 3.92262 66.5825 3.99658 66.3816 3.99658C66.0066 3.99658 65.6864 3.72538 65.6864 3.21837C65.6864 2.77479 65.9895 2.49536 66.3816 2.49536C66.7475 2.49536 67.0338 2.75687 67.0338 3.21837ZM66.2191 12.7669H66.5183C66.4508 13.6668 66.4147 14.5981 66.4147 16.1015V35.017C66.4147 36.4764 66.4509 37.4388 66.5186 38.3516H66.2188C66.2865 37.4388 66.3227 36.4764 66.3227 35.017V16.1015C66.3227 14.5981 66.2866 13.6668 66.2191 12.7669Z" stroke="white"/>
<path id="Vector_5" d="M113.091 25.2681C110.27 24.6619 108.385 23.8903 107.209 22.8799C106.064 21.8966 105.55 20.6516 105.55 18.9614C105.55 16.919 106.309 15.2568 107.616 14.1C108.928 12.9381 110.834 12.252 113.175 12.252C114.875 12.252 116.377 12.5953 117.745 13.226C118.737 13.6919 119.731 14.4215 120.444 15.1734L120.358 15.2703C119.752 14.6066 118.944 13.9713 118.011 13.4491L118.004 13.4451L117.997 13.4414C116.535 12.684 114.873 12.3094 113.175 12.3094C110.896 12.3094 109.01 12.906 107.686 14.0616C106.354 15.2249 105.65 16.9046 105.65 18.943C105.65 20.5832 106.195 21.8733 107.452 22.8754C108.67 23.8464 110.522 24.5182 113.071 25.0596C116.38 25.7738 118.513 26.5979 119.819 27.685C121.085 28.7382 121.618 30.0766 121.618 31.9824C121.618 34.1501 120.835 35.8429 119.428 37.0037C118.008 38.1747 115.898 38.8482 113.175 38.8482C110.437 38.8482 108.358 38.2074 106.707 36.8637L106.707 36.8636L106.699 36.8573C105.795 36.1527 104.957 35.2455 104.3 34.2489L104.385 34.1628C105.025 35.1233 105.795 36.0027 106.641 36.7203C108.294 38.1589 110.578 38.7814 113.227 38.7814C115.799 38.7814 117.874 38.2319 119.315 37.0933C120.776 35.9395 121.517 34.2356 121.517 32.0928C121.517 30.2206 121.013 28.8022 119.624 27.7049C118.288 26.6496 116.177 25.9308 113.091 25.2681ZM113.091 25.2681L112.986 25.757M113.091 25.2681L112.986 25.757M112.986 25.757C119.152 27.0811 121.017 28.5616 121.017 32.0928C121.017 36.1297 118.249 38.2814 113.227 38.2814C110.647 38.2814 108.498 37.6745 106.967 36.3412L121.112 15.1727C120.347 14.2532 119.151 13.3336 117.956 12.7727C116.52 12.1106 114.947 11.752 113.175 11.752C108.3 11.752 105.05 14.6118 105.05 18.9614C105.05 22.5844 107.294 24.5339 112.986 25.757Z" stroke="white"/>
<path id="WINE-bottrle" d="M127.999 24.6501H127.499V25.1501V25.4076C127.499 29.379 128.574 32.7213 130.517 35.0808C132.467 37.4494 135.263 38.7907 138.61 38.7907C140.85 38.7907 143.028 38.2178 144.808 37.1138C143.057 38.2416 140.9 38.8666 138.61 38.8666C135.292 38.8666 132.505 37.5129 130.538 35.1724C128.567 32.8253 127.399 29.4566 127.399 25.4076C127.399 21.3462 128.453 18.017 130.316 15.7137C132.171 13.4219 134.858 12.1049 138.232 12.1049C141.634 12.1049 144.091 13.1999 145.713 15.2045C147.35 17.2278 148.196 20.2533 148.196 24.2305V24.6501H127.999ZM147.394 34.8477C147.204 35.0642 146.983 35.2972 146.752 35.5244C146.968 35.2972 147.171 35.0618 147.362 34.8165L147.394 34.8477ZM147.596 24.6293H148.096V24.1293C148.096 20.3797 147.245 17.388 145.551 15.3255C143.844 13.2475 141.336 12.1808 138.18 12.1808C135.017 12.1808 132.437 13.3047 130.604 15.3924C128.782 17.469 127.741 20.4508 127.543 24.1023L127.515 24.6293H128.042H147.596Z" stroke="white"/>
<path id="Vector_6" d="M87.8523 12.2612H88.3077C91.316 12.3814 93.7676 13.6748 95.5005 15.8572C97.3304 18.162 98.3844 21.4934 98.3844 25.5547C98.3844 29.6134 97.308 32.9451 95.4659 35.2509C93.6318 37.5468 91.0155 38.8573 87.8437 38.8573C86.2179 38.8573 84.7376 38.5037 83.44 37.8349C84.7341 38.4602 86.199 38.7907 87.8007 38.7907C91.0092 38.7907 93.6544 37.4973 95.4855 35.1673C97.3065 32.8502 98.2923 29.5485 98.2923 25.5638C98.2923 21.5804 97.3178 18.2786 95.5021 15.961C93.6758 13.6298 91.0299 12.337 87.8007 12.337C85.7125 12.337 83.8688 12.8824 82.333 13.899C83.8477 12.8359 85.6985 12.2612 87.8523 12.2612ZM77.3091 25.5638C77.3091 27.3022 77.5014 28.9131 77.8713 30.3697H77.7575H77.5683H77.2282L77.2148 20.6936H77.5683H77.7145H77.8769C77.5023 22.1674 77.3091 23.8002 77.3091 25.5638ZM77.26 53.3616L77.2313 32.5907C77.2357 32.6724 77.24 32.7563 77.2441 32.842C77.2856 33.7079 77.3091 34.7344 77.3091 35.7251L77.3091 35.7263L77.3521 53.3623L77.3521 53.3636L77.3521 83.7816V83.7955C77.3521 84.8842 77.3521 85.9971 77.4464 87.1162H77.26V85.6207V53.3623V53.3616ZM76.3432 85.8969L77.1509 87.1162H76.7884C76.1838 85.8261 75.488 84.7017 74.6824 83.5041C74.682 83.5036 74.6817 83.5031 74.6813 83.5025L54.5626 53.0865L54.5627 53.0864L54.5575 53.0789C54.3508 52.7784 54.146 52.4756 53.9401 52.1712C53.4881 51.5027 53.031 50.8267 52.537 50.1519L52.446 50.0278H52.7099C53.3974 51.2365 54.1703 52.4413 54.9766 53.6399C54.9769 53.6404 54.9772 53.6409 54.9776 53.6414L76.3432 85.8969ZM51.6335 83.7952C51.6335 84.884 51.6335 85.997 51.7279 87.1162H51.4472C51.5415 85.997 51.5415 84.884 51.5415 83.7952V83.7816V53.3623V53.3488C51.5415 52.2599 51.5415 51.147 51.4472 50.0278H51.6335V50.4473V83.7816V83.7952ZM77.3091 16.359C77.3091 17.1372 77.2733 17.975 77.2121 18.7613L77.2084 16.1015C77.2084 16.1013 77.2084 16.1011 77.2084 16.1008C77.2084 14.5978 77.1724 13.6667 77.1049 12.7669H77.3091V16.359Z" stroke="white"/>
<path id="Vector_7" d="M103.423 70.4018V81.3872H103.099C103.156 81.262 103.211 81.1352 103.266 81.0067L103.306 80.913V80.8113V74.0617V73.6076L102.854 73.564C101.784 73.4608 100.572 73.4053 98.79 73.4053C97.0387 73.4053 95.4634 73.5016 94.0637 73.7022C95.4586 73.4974 97.0376 73.3938 98.8072 73.3938C100.612 73.3938 101.789 73.4487 102.773 73.5476L103.323 73.6029V73.0501V70.5489C103.323 67.5342 102.731 65.2739 101.359 63.7714C99.9777 62.2581 97.9008 61.6165 95.1786 61.6165C93.3104 61.6165 91.8026 62.1041 90.4027 62.8526L90.4027 62.8526L90.3962 62.8562C89.3484 63.4366 88.48 64.1691 87.7594 64.9494L87.7034 64.8727C88.5933 63.9654 89.5097 63.2404 90.4887 62.713L90.4887 62.713L90.4936 62.7103C91.8911 61.937 93.4315 61.5498 95.2731 61.5498C98.1603 61.5498 100.162 62.2596 101.453 63.6519C102.752 65.0524 103.423 67.2406 103.423 70.4018ZM89.3482 75.107C89.2367 75.1669 89.1278 75.2284 89.0213 75.2916C87.9196 75.946 87.0866 76.7826 86.5324 77.8114C85.9794 78.8382 85.7188 80.029 85.7188 81.3722C85.7188 83.4332 86.4227 85.1064 87.7925 86.2544C89.1493 87.3915 91.0954 87.9598 93.4846 87.9598C94.8109 87.9598 96.0353 87.7582 97.1532 87.3543C96.0361 87.8051 94.8091 88.0356 93.4932 88.0356C90.9406 88.0356 88.9922 87.391 87.6891 86.2663C86.3961 85.1502 85.6783 83.5098 85.6783 81.3814C85.6783 78.6722 86.7148 76.7194 88.8132 75.4138C88.9841 75.3074 89.1624 75.2051 89.3482 75.107ZM103.362 85.1758C103.372 84.7324 103.393 84.2678 103.423 83.7999V84.1493C103.423 85.4783 103.462 86.468 103.533 87.5299H103.374V85.6758V85.1758H103.362Z" stroke="white"/>
<path id="Vector_8" d="M124.554 87.3771C123.64 87.8112 122.473 88.036 121.396 88.036C119.385 88.036 117.887 87.4744 116.892 86.5035C115.899 85.5341 115.344 84.0928 115.344 82.2002V62.5214V62.0214H114.844H112.453C111.097 62.0214 110.198 62.0596 109.325 62.131V61.8451C110.198 61.9165 111.097 61.9547 112.453 61.9547H114.844H115.344V61.4547V56.8017C115.344 55.2988 115.308 54.3292 115.24 53.4211H115.539C115.472 54.3352 115.436 55.3041 115.436 56.8017V61.4547V61.9547H115.936H120.097C121.443 61.9547 122.338 61.9172 123.183 61.8467V62.1295C122.338 62.059 121.443 62.0214 120.097 62.0214H115.936H115.436V62.5214V81.8967C115.436 83.7996 115.95 85.336 116.996 86.3962C118.043 87.4575 119.551 87.9693 121.387 87.9693C122.614 87.9693 123.613 87.7427 124.534 87.3163L124.554 87.3771Z" stroke="white"/>
<path id="Vector_9" d="M130.503 65.2615C130.503 63.7581 130.467 62.8268 130.399 61.9269H130.699C130.631 62.8268 130.595 63.7581 130.595 65.2615V78.4481C130.595 81.4548 131.292 83.8392 132.721 85.477C134.16 87.1264 136.274 87.9414 138.937 87.9415L138.942 87.9414C140.458 87.9262 141.856 87.6453 143.091 87.1313C141.843 87.7105 140.415 88.0265 138.851 88.0265C136.165 88.0265 134.1 87.1815 132.701 85.645C131.296 84.1019 130.503 81.7955 130.503 78.7607V65.2615ZM148.663 65.2523C148.663 63.7489 148.627 62.8177 148.56 61.9177H148.859C148.791 62.8177 148.755 63.7489 148.755 65.2523V81.5344H148.318H148.224H148.195C148.502 80.5492 148.663 79.4773 148.663 78.3377V65.2523ZM148.755 82.9784V84.1862V84.6862H148.765C148.773 85.8736 148.808 86.7164 148.868 87.5208H148.672V85.869C148.672 84.9901 148.701 83.9399 148.755 82.9784Z" stroke="white"/>
<path id="Vector_10" d="M159.488 68.4834H159.534C159.369 69.0157 159.235 69.5688 159.133 70.1392L159.125 70.1828V70.2272V84.1862C159.125 85.6455 159.161 86.608 159.229 87.5208H158.929C158.997 86.608 159.033 85.6455 159.033 84.1862V68.4834H159.393H159.488ZM167.415 61.543C166.997 61.543 166.586 61.5817 166.185 61.6565C166.696 61.5378 167.223 61.4763 167.759 61.4763C168.992 61.4763 170.119 61.6622 170.917 61.9957L170.85 62.1911C169.743 61.7504 168.692 61.543 167.415 61.543ZM159.033 65.2707C159.033 63.7673 158.997 62.836 158.929 61.9361H159.134V63.4316C159.134 64.4954 159.096 65.6469 159.033 66.5729V65.2707Z" stroke="white"/>
<path id="Vector_11" d="M174.303 73.8194H173.803V74.3194V74.5769C173.803 78.5483 174.878 81.8906 176.82 84.2501C178.77 86.6187 181.566 87.96 184.914 87.96C187.155 87.96 189.334 87.3863 191.119 86.2817C189.365 87.4106 187.211 88.0359 184.914 88.0359C181.595 88.0359 178.808 86.6822 176.842 84.3418C174.87 81.9946 173.702 78.6259 173.702 74.5769C173.702 70.5155 174.756 67.1862 176.619 64.8829C178.472 62.5911 181.158 61.2742 184.527 61.2742C187.924 61.2742 190.384 62.3691 192.009 64.3741C193.649 66.3976 194.5 69.4231 194.5 73.3998V73.8194H174.303ZM193.706 84.017C193.517 84.2335 193.295 84.4664 193.064 84.6935C193.28 84.4664 193.483 84.2311 193.675 83.9858L193.706 84.017ZM193.908 73.7987H194.408V73.2987C194.408 69.549 193.558 66.5574 191.863 64.4948C190.156 62.4168 187.648 61.3501 184.492 61.3501C181.329 61.3501 178.749 62.474 176.916 64.5617C175.094 66.6383 174.053 69.6201 173.855 73.2717L173.827 73.7987H174.355H193.908Z" stroke="white"/>
</g>
</svg>
